<!DOCTYPE svg PUBLIC "-//W3C//DTD SVG 1.1//EN" "http://www.w3.org/Graphics/SVG/1.1/DTD/svg11.dtd">
<!-- Uploaded to: SVG Repo, www.svgrepo.com, Transformed by: SVG Repo Mixer Tools -->
<svg height="250px" width="250px" version="1.1" id="Layer_1" xmlns="http://www.w3.org/2000/svg" xmlns:xlink="http://www.w3.org/1999/xlink" viewBox="-51.2 -51.2 614.40 614.40" xml:space="preserve" fill="#000000">
<g id="SVGRepo_bgCarrier" stroke-width="0"/>
<g id="SVGRepo_tracerCarrier" stroke-linecap="round" stroke-linejoin="round"/>
<g id="SVGRepo_iconCarrier"> <g> <path style="fill:#ea2734;" d="M430.992,77.962c1.055,0.264,2.098,0.528,3.141,0.803l37.558,9.734l31.241,74.973l-12.503,34.993 l-15.009-2.997v-0.012l-103.696-20.74l-6.714-39.764l-4.532-26.829c-29.85-8.235-67.457-12.348-105.051-12.348 c-37.606,0-75.213,4.111-105.051,12.348l-4.532,26.841l-6.725,39.753l-103.685,20.74l-15.021,3.009l-12.49-34.993l31.228-74.973 l37.558-9.734c1.043-0.275,2.098-0.539,3.153-0.803C186.521,50.989,324.334,50.989,430.992,77.962z"/> <polygon style="fill:#ea2734;" points="442.356,421.976 417.086,214.817 349.786,200.431 341.141,144.087 308.175,144.087 202.681,144.087 169.713,144.087 161.058,200.431 93.757,214.817 68.502,421.964 "/> </g> <g> <polygon style="fill:#ea2734;" points="107.587,421.964 132.842,214.817 200.143,200.431 208.798,144.087 202.681,144.087 169.713,144.087 161.058,200.431 93.757,214.817 68.502,421.964 442.356,421.976 442.356,421.975 "/> <polygon style="fill:#ea2734;" points="502.934,163.475 490.426,198.461 475.414,195.47 475.414,195.458 371.727,174.714 365.009,134.948 365.825,134.823 "/> <polygon style="fill:#ea2734;" points="145.014,134.823 145.841,134.959 145.841,134.97 139.123,174.714 35.436,195.458 20.413,198.461 7.928,163.475 "/> </g> <path style="fill:#F2F2F2;" d="M358.37,292.187c0-56.858-46.098-102.942-102.942-102.942c-56.858,0-102.942,46.084-102.942,102.942 c0,56.843,46.084,102.942,102.942,102.942C312.272,395.129,358.37,349.031,358.37,292.187z"/> <path style="fill:#CCCCCC;" d="M186.472,292.187c0-51.067,37.179-93.437,85.947-101.538c-5.529-0.919-11.203-1.405-16.992-1.405 c-56.858,0-102.942,46.085-102.942,102.943c0,56.843,46.084,102.942,102.942,102.942c5.788,0,11.463-0.486,16.992-1.405 C223.65,385.621,186.472,343.243,186.472,292.187z"/> <polygon style="fill:#F2F2F2;" points="462.753,454.842 48.105,454.842 57.783,421.976 453.075,421.976 "/> <polygon style="fill:#CCCCCC;" points="57.783,421.976 48.105,454.842 131.373,454.842 141.051,421.976 "/> <path style="fill:#ea2734;" d="M245.537,220.507c0,62.838-44.47,52.204-43.503,94.74c0.546,24.016,20.76,37.764,43.447,40.436 c-5.437-6.284-29.424-37.574,7.789-62.671c1.194,24.188,21.268,28.036,21.268,45.437c0,7.328-1.544,12.249-3.331,15.499 c18.722-4.894,34.589-17.944,37.166-39.667C315.141,257.243,245.537,220.507,245.537,220.507z"/> <path d="M511.346,159.911l-31.247-74.978c-1.023-2.455-3.137-4.289-5.712-4.957l-37.541-9.727c-1.079-0.282-2.156-0.562-3.202-0.82 C325.732,42.134,186.268,42.134,78.387,69.416c-1.089,0.27-2.179,0.551-3.24,0.827l-37.557,9.732 c-2.575,0.667-4.69,2.503-5.712,4.959L0.653,159.912c-0.812,1.95-0.869,4.133-0.159,6.122L12.98,201.02 c1.417,3.971,5.533,6.303,9.667,5.476l118.711-23.747c3.454-0.691,6.125-3.443,6.712-6.915l6.718-39.744 c0.009-0.057,0.019-0.114,0.027-0.171l3.593-21.278c27.362-6.895,61.751-10.67,97.592-10.67c35.825,0,70.209,3.775,97.58,10.67 l10.338,61.191c0.587,3.474,3.257,6.226,6.712,6.917l103.266,20.659c0.142,0.036,0.283,0.068,0.427,0.096l15.012,2.991 c0.559,0.111,1.115,0.165,1.665,0.165c3.527,0,6.769-2.206,7.996-5.638l12.508-34.985 C512.216,164.049,512.159,161.863,511.346,159.911z M363.306,99.633c-29.579-8.161-67.689-12.655-107.307-12.655 c-39.637,0-77.749,4.494-107.319,12.656c-3.182,0.878-5.568,3.52-6.118,6.776l-3.512,20.802l-43.08,9.005 c-4.594,0.96-7.54,5.462-6.579,10.055c0.837,4.008,4.37,6.76,8.308,6.76c0.576,0,1.161-0.059,1.747-0.181l36.565-7.643 l-3.723,22.026l-105.772,21.16l-6.741-18.891l47.715-9.972c4.594-0.96,7.54-5.462,6.579-10.055 c-0.961-4.594-5.461-7.541-10.055-6.579l-41.476,8.668L45.94,95.367l33.484-8.676c1.007-0.263,2.026-0.526,3.086-0.789 c105.392-26.654,241.586-26.654,347.01,0.011c1.017,0.252,2.025,0.514,3.046,0.781l33.469,8.673l23.419,56.196L372.94,127.214 l-3.514-20.805C368.875,103.153,366.489,100.511,363.306,99.633z M485.463,188.398l-7.397-1.474 c-0.137-0.034-0.275-0.066-0.416-0.094l-97.95-19.597l-3.721-22.022l116.239,24.29L485.463,188.398z"/> <path d="M185.105,367.012c-2.932,3.664-2.337,9.011,1.327,11.943c19.649,15.72,44.354,24.375,69.564,24.375 c61.447,0,111.439-49.991,111.439-111.44s-49.991-111.439-111.439-111.439s-111.44,49.991-111.44,111.439 c0,21.376,6.073,42.147,17.561,60.066c2.532,3.949,7.788,5.101,11.74,2.567c3.951-2.533,5.099-7.789,2.567-11.74 c-9.73-15.177-14.873-32.776-14.873-50.894c0-52.077,42.368-94.444,94.446-94.444s94.444,42.368,94.444,94.444 s-42.368,94.446-94.444,94.446c-21.675,0-42.061-7.141-58.948-20.651C193.384,362.753,188.036,363.348,185.105,367.012z"/> <path d="M461.794,419.279c-1.064-3.614-4.382-6.096-8.15-6.096h-3.195l-14.335-117.515c-0.568-4.658-4.805-7.971-9.463-7.406 c-4.659,0.568-7.974,4.805-7.406,9.464l14.084,115.456h-45.185c-4.693,0-8.497,3.804-8.497,8.497s3.804,8.497,8.497,8.497h59.144 l4.673,15.873H60.034l4.673-15.873h289.449c4.693,0,8.497-3.804,8.497-8.497s-3.804-8.497-8.497-8.497H78.665l23.362-191.619 l61.376-13.118c3.451-0.738,6.086-3.531,6.622-7.02l7.549-49.137h156.844l7.538,49.136c0.535,3.488,3.171,6.283,6.622,7.021 l61.376,13.118l5.31,43.531c0.568,4.658,4.808,7.978,9.463,7.406c4.659-0.568,7.974-4.805,7.406-9.464l-6.043-49.545 c-0.44-3.598-3.113-6.522-6.658-7.28l-61.568-13.159l-7.755-50.549c-0.637-4.147-4.203-7.209-8.398-7.209h-24.469v-12.266 c0-4.693-3.804-8.497-8.497-8.497s-8.497,3.804-8.497,8.497v12.266h-88.501v-12.266c0-4.693-3.804-8.497-8.497-8.497 c-4.693,0-8.497,3.804-8.497,8.497v12.266h-24.469c-4.195,0-7.762,3.061-8.399,7.207l-7.765,50.55l-61.57,13.16 c-3.545,0.758-6.22,3.682-6.658,7.281l-24.346,199.69h-3.194c-3.768,0-7.087,2.482-8.15,6.096l-9.678,32.867 c-0.757,2.57-0.258,5.345,1.346,7.49c1.604,2.145,4.126,3.408,6.804,3.408h414.647c2.678,0,5.2-1.263,6.804-3.408 c1.604-2.145,2.103-4.92,1.347-7.49L461.794,419.279z"/> <path d="M265.074,358.874c2.087,2.678,5.568,3.858,8.852,2.998c24.486-6.401,40.73-23.929,43.454-46.886 c3.088-26.025-7.755-52.073-31.355-75.329c-17.249-16.996-35.198-26.561-35.955-26.96c-2.632-1.389-5.802-1.301-8.353,0.238 c-2.55,1.537-4.109,4.298-4.109,7.277c0,30.625-10.903,40.828-22.447,51.629c-10.115,9.465-21.579,20.194-21.053,43.305 c0.312,13.698,5.985,25.628,16.408,34.5c8.895,7.57,21.161,12.606,34.541,14.182c0.333,0.04,0.666,0.058,0.996,0.058 c3.117,0,6.02-1.716,7.506-4.518c1.642-3.099,1.212-6.887-1.083-9.539c-2.033-2.349-12.084-14.729-10.345-27.819 c0.637-4.789,2.821-9.356,6.526-13.659c2.879,6.957,7.126,11.983,10.813,16.346c4.693,5.553,7.141,8.674,7.141,13.457 c0,5.999-1.239,9.513-2.279,11.405C262.695,352.534,262.987,356.197,265.074,358.874z M262.326,292.298 c-0.151-3.063-1.941-5.807-4.684-7.179c-2.743-1.372-6.013-1.16-8.554,0.554c-14.048,9.475-22.057,20.947-23.804,34.098 c-1.039,7.827,0.356,15.178,2.673,21.49c-11.846-6.479-16.644-16.988-16.86-26.502c-0.352-15.51,6.371-21.802,15.675-30.509 c10.639-9.956,23.511-22.003,26.95-49.229c18.246,12.688,51.165,41.025,46.782,77.962c-1.6,13.478-9.227,21.617-16.915,26.463 c0.009-0.427,0.014-0.859,0.014-1.294c0-11.225-5.926-18.239-11.155-24.426C267.282,307.614,262.821,302.335,262.326,292.298z"/> </g>
</svg>