<?xml version="1.0" encoding="iso-8859-1"?>
<!-- Uploaded to: SVG Repo, www.svgrepo.com, Generator: SVG Repo Mixer Tools -->
<svg version="1.1" id="Layer_1" xmlns="http://www.w3.org/2000/svg" xmlns:xlink="http://www.w3.org/1999/xlink" 
	 viewBox="0 0 512 512" xml:space="preserve">
<g>
	<rect x="230.347" y="200.418" style="fill:#FF5050;" width="51.307" height="34.205"/>
	<rect x="8.017" y="114.906" style="fill:#FF5050;" width="495.967" height="34.205"/>
</g>
<path style="fill:#C84146;" d="M307.307,97.804H204.693c-4.722,0-8.551,3.829-8.551,8.551v51.307c0,4.722,3.829,8.551,8.551,8.551
	h8.551c4.722,0,8.551,3.829,8.551,8.551v17.102c0,4.722,3.829,8.551,8.551,8.551h51.307c4.722,0,8.551-3.829,8.551-8.551v-17.102
	c0-4.722,3.829-8.551,8.551-8.551h8.551c4.722,0,8.551-3.829,8.551-8.551v-51.307C315.858,101.633,312.029,97.804,307.307,97.804z"
	/>
<path style="fill:#D5DCED;" d="M290.205,234.622h-68.409c-4.722,0-8.551,3.829-8.551,8.551v51.307h85.511v-51.307
	C298.756,238.451,294.927,234.622,290.205,234.622z"/>
<g>
	<path style="fill:#C7CFE2;" d="M247.449,234.622h-25.653c-4.722,0-8.551,3.829-8.551,8.551v51.307h25.653v-51.307
		C238.898,238.451,242.726,234.622,247.449,234.622z"/>
	<path style="fill:#C7CFE2;" d="M332.96,320.134H179.04c-9.446,0-17.102-7.656-17.102-17.102l0,0
		c0-9.446,7.656-17.102,17.102-17.102H332.96c9.446,0,17.102,7.656,17.102,17.102l0,0
		C350.063,312.477,342.406,320.134,332.96,320.134z"/>
</g>
<path style="fill:#AFB9D2;" d="M226.071,303.031c0-9.446,7.656-17.102,17.102-17.102H179.04c-9.446,0-17.102,7.656-17.102,17.102
	c0,9.446,7.656,17.102,17.102,17.102h64.134C233.727,320.134,226.071,312.477,226.071,303.031z"/>
<path d="M8.017,122.923h17.102c4.427,0,8.017-3.589,8.017-8.017c0-4.427-3.589-8.017-8.017-8.017H8.017
	c-4.427,0-8.017,3.589-8.017,8.017C0,119.333,3.589,122.923,8.017,122.923z"/>
<path d="M452.676,141.094H323.875v-18.171h180.109c4.427,0,8.017-3.589,8.017-8.017c0-4.427-3.589-8.017-8.017-8.017H323.875v-0.534
	c0-9.136-7.432-16.568-16.568-16.568H204.693c-9.136,0-16.568,7.432-16.568,16.568v0.534H59.324c-4.427,0-8.017,3.589-8.017,8.017
	c0,4.427,3.589,8.017,8.017,8.017h128.802v18.171H8.017c-4.427,0-8.017,3.589-8.017,8.017c0,4.427,3.589,8.017,8.017,8.017h180.109
	v0.534c0,9.136,7.432,16.568,16.568,16.568h8.551c0.295,0,0.534,0.239,0.534,0.534v17.102c0,6.228,3.458,11.66,8.551,14.489v20.25
	h-0.534c-9.136,0-16.568,7.432-16.568,16.568v34.739H179.04c-13.851,0-25.119,11.268-25.119,25.119
	c0,13.851,11.268,25.119,25.119,25.119h34.739v19.104c0,6.709,2.612,13.018,7.357,17.762l26.847,26.846v14.317h-17.637
	c-4.427,0-8.017,3.589-8.017,8.017c0,4.427,3.589,8.017,8.017,8.017h51.307c4.427,0,8.017-3.589,8.017-8.017
	c0-4.427-3.589-8.017-8.017-8.017h-17.637v-14.317l26.847-26.847c4.745-4.744,7.357-11.052,7.357-17.762V328.15h34.739
	c13.851,0,25.119-11.268,25.119-25.119c0-13.851-11.268-25.119-25.119-25.119h-26.188v-34.739c0-9.136-7.432-16.568-16.568-16.568
	h-0.534v-20.25c5.093-2.829,8.551-8.26,8.551-14.489v-17.102c0-0.295,0.239-0.534,0.534-0.534h8.551
	c9.136,0,16.568-7.432,16.568-16.568v-0.534h128.802c4.427,0,8.017-3.589,8.017-8.017
	C460.693,144.683,457.104,141.094,452.676,141.094z M282.188,347.255c0,2.427-0.945,4.708-2.662,6.425L256,377.206l-23.526-23.526
	c-1.716-1.716-2.662-3.998-2.662-6.425V328.15h18.171v17.637c0,4.427,3.589,8.017,8.017,8.017c4.427,0,8.017-3.589,8.017-8.017
	V328.15h18.171V347.255z M290.739,243.173v34.739h-9.086c-4.427,0-8.017,3.589-8.017,8.017c0,4.427,3.589,8.017,8.017,8.017h51.307
	c5.01,0,9.086,4.076,9.086,9.086s-4.076,9.086-9.086,9.086H179.04c-5.01,0-9.086-4.076-9.086-9.086s4.076-9.086,9.086-9.086h68.409
	c4.427,0,8.017-3.589,8.017-8.017c0-4.427-3.589-8.017-8.017-8.017h-26.188v-34.739c0-0.295,0.239-0.534,0.534-0.534h68.409
	C290.5,242.639,290.739,242.878,290.739,243.173z M238.363,226.605v-18.171h35.273v18.171H238.363z M307.841,157.662
	c0,0.295-0.239,0.534-0.534,0.534h-8.551c-9.136,0-16.568,7.432-16.568,16.568v17.102c0,0.295-0.239,0.534-0.534,0.534h-51.307
	c-0.295,0-0.534-0.239-0.534-0.534v-17.102c0-9.136-7.432-16.568-16.568-16.568h-8.551c-0.295,0-0.534-0.239-0.534-0.534v-51.307
	c0-0.295,0.239-0.534,0.534-0.534h102.614c0.295,0,0.534,0.239,0.534,0.534V157.662z"/>
<path d="M503.983,141.094h-17.099c-4.427,0-8.017,3.589-8.017,8.017c0,4.427,3.589,8.017,8.017,8.017h17.099
	c4.427,0,8.017-3.589,8.017-8.017C512,144.683,508.411,141.094,503.983,141.094z"/>
</svg>